<svg viewBox="0 0 24 24" fill="currentColor" xmlns="http://www.w3.org/2000/svg">
  <path fill="#FF9900" d="M6.763 8.652c0-.528.35-.956.987-.956.18 0 .35.026.502.077l.887.27.18-1.02c-.285-.117-.838-.24-1.598-.24-1.783 0-3.007 1.181-3.007 2.973v.05c0 1.724 1.15 2.88 2.906 2.88.98 0 1.534-.24 1.844-.454l-.27-1.024c-.206.126-.6.318-1.326.318-.953 0-1.505-.658-1.505-1.632v-.272z" />
  <path fill="#FF9900" d="M12.06 8.496c-1.698 0-2.823 1.233-2.823 2.88v.103c0 1.829 1.177 2.88 2.88 2.88 1.72 0 2.815-1.051 2.815-2.88v-.103c0-1.647-1.125-2.88-2.872-2.88zm1.466 2.956c0 .904-.478 1.558-1.466 1.558-.96 0-1.456-.654-1.456-1.558v-.103c0-.906.496-1.56 1.456-1.56.988 0 1.466.654 1.466 1.56v.103z" />
  <path fill="#FF9900" d="M17.844 8.496c-.36 0-.824.094-1.202.285l-.18.09.374 1.046.12-.056c.239-.117.618-.24.932-.24.954 0 1.506.6 1.506 1.584v.37h-.427c-1.344 0-2.12.656-2.12 1.775 0 1.05.706 1.774 1.895 1.774.666 0 1.177-.207 1.467-.549l.103.452h1.039V11.57c0-1.74-.87-3.073-2.508-3.073zm.717 3.86c-.206.182-.53.297-.97.297-.684 0-1.053-.397-1.053-.982 0-.622.454-.95 1.34-.95h.683v1.635z" />
</svg>