<svg viewBox="0 0 24 24" fill="currentColor" xmlns="http://www.w3.org/2000/svg">
  <path fill="#0078D4" d="M11.4 2.3h.3c3.3 0 6.4 1.3 8.6 3.5 2.3 2.3 3.6 5.4 3.6 8.7 0 3.3-1.3 6.4-3.6 8.7-2.3 2.3-5.4 3.6-8.7 3.6H11 9.7c-3.3 0-6.4-1.3-8.6-3.5-2.3-2.3-3.6-5.4-3.6-8.7 0-3.3 1.3-6.4 3.6-8.7C3.4 3.6 6.5 2.3 9.8 2.3h1.6z" />
  <path fill="#50E6FF" d="M9.7 4.7c-2.6 0-5 1-6.8 2.8-1.8 1.8-2.9 4.3-2.9 6.8 0 2.6 1 5 2.9 6.8 1.8 1.8 4.3 2.9 6.9 2.9h1.4c2.6 0 5-1 6.8-2.8 1.8-1.8 2.9-4.3 2.9-6.9 0-2.6-1-5-2.9-6.8-1.8-1.8-4.3-2.9-6.9-2.9H9.7z" />
  <path fill="#0078D4" d="M9 9h4.5v1.5H9V9z"/>
  <path fill="#0078D4" d="M9 13h4.5v1.5H9V13z"/>
</svg>