<svg width="1200" height="900" viewBox="0 0 1200 900" xmlns="http://www.w3.org/2000/svg">
  <defs>
    <linearGradient id="fw-bg" x1="0" x2="1" y1="0" y2="1">
      <stop offset="0%" stop-color="#0A0E27" />
      <stop offset="50%" stop-color="#141B3D" />
      <stop offset="100%" stop-color="#0A0E27" />
    </linearGradient>
    <linearGradient id="fw-accent" x1="0" x2="1" y1="0" y2="0">
      <stop offset="0%" stop-color="#06B6D4" />
      <stop offset="100%" stop-color="#8B5CF6" />
    </linearGradient>
  </defs>
  <rect width="1200" height="900" rx="38" fill="url(#fw-bg)"/>
  <rect x="60" y="80" width="1080" height="740" rx="28" fill="#0F1535" stroke="url(#fw-accent)" stroke-opacity="0.35" stroke-width="3"/>
  <circle cx="1040" cy="180" r="180" fill="#06B6D4" opacity="0.14"/>
  <circle cx="240" cy="680" r="220" fill="#8B5CF6" opacity="0.14"/>
  <rect x="120" y="150" width="960" height="160" rx="20" fill="#121a3a" stroke="#1e2a54"/>
  <rect x="140" y="172" width="120" height="12" rx="6" fill="#06B6D4"/>
  <rect x="280" y="172" width="120" height="12" rx="6" fill="#2a365f"/>
  <rect x="420" y="172" width="120" height="12" rx="6" fill="#2a365f"/>
  <rect x="140" y="206" width="260" height="22" rx="11" fill="#d5e2ff" opacity="0.9"/>
  <rect x="140" y="240" width="200" height="14" rx="7" fill="#6fc4ff" opacity="0.8"/>
  <rect x="140" y="266" width="360" height="14" rx="7" fill="#2a365f"/>
  <rect x="530" y="206" width="180" height="22" rx="11" fill="#ffd166" opacity="0.9"/>
  <rect x="730" y="206" width="240" height="22" rx="11" fill="#ff6b6b" opacity="0.85"/>
  <rect x="530" y="244" width="440" height="10" rx="5" fill="#2a365f"/>
  <rect x="530" y="264" width="320" height="10" rx="5" fill="#2a365f"/>
  <rect x="120" y="350" width="960" height="370" rx="20" fill="#0e142f" stroke="#1e2a54"/>
  <rect x="160" y="390" width="880" height="14" rx="7" fill="#1f2b55"/>
  <rect x="160" y="420" width="400" height="12" rx="6" fill="#06B6D4" opacity="0.85"/>
  <rect x="580" y="420" width="280" height="12" rx="6" fill="#8B5CF6" opacity="0.85"/>
  <rect x="160" y="456" width="720" height="6" rx="3" fill="#1f2b55"/>
  <rect x="160" y="476" width="680" height="6" rx="3" fill="#1f2b55"/>
  <rect x="160" y="520" width="300" height="160" rx="18" fill="#111a3d" stroke="#1f2b55"/>
  <rect x="500" y="520" width="300" height="160" rx="18" fill="#111a3d" stroke="#1f2b55"/>
  <rect x="840" y="520" width="200" height="160" rx="18" fill="#111a3d" stroke="#1f2b55"/>
  <rect x="182" y="548" width="180" height="18" rx="9" fill="#d5e2ff" opacity="0.9"/>
  <rect x="182" y="580" width="220" height="10" rx="5" fill="#2a365f"/>
  <rect x="182" y="604" width="220" height="10" rx="5" fill="#2a365f"/>
  <rect x="522" y="548" width="180" height="18" rx="9" fill="#ffd166" opacity="0.9"/>
  <rect x="522" y="580" width="240" height="10" rx="5" fill="#2a365f"/>
  <rect x="522" y="604" width="240" height="10" rx="5" fill="#2a365f"/>
  <rect x="862" y="548" width="140" height="18" rx="9" fill="#ff6b6b" opacity="0.9"/>
  <rect x="862" y="580" width="160" height="10" rx="5" fill="#2a365f"/>
  <rect x="862" y="604" width="160" height="10" rx="5" fill="#2a365f"/>
  <rect x="120" y="760" width="960" height="20" rx="10" fill="url(#fw-accent)" opacity="0.45"/>
</svg>
